<svg width="70" height="70" viewBox="0 0 70 70" fill="none" xmlns="http://www.w3.org/2000/svg">
<rect x="3.5" y="49" width="63" height="21" fill="#BEDCFF"/>
<path d="M55.4167 5.83337H26.25C23.0329 5.83337 20.4167 8.44962 20.4167 11.6667V29.1667H14.5833C11.3663 29.1667 8.75 31.783 8.75 35V61.25C8.75 62.86 10.0538 64.1667 11.6667 64.1667H35H58.3333C59.9463 64.1667 61.25 62.86 61.25 61.25V11.6667C61.25 8.44962 58.6338 5.83337 55.4167 5.83337ZM14.5833 35H23.3333H32.0833V40.8334V46.6667V58.3334H14.5833V35ZM55.4167 58.3334H37.9167V46.6667V40.8334V35C37.9167 31.783 35.3004 29.1667 32.0833 29.1667H26.25V11.6667H55.4167V58.3334Z" fill="#1A446D"/>
<path d="M32.0833 17.5H37.9166V23.3333H32.0833V17.5ZM43.75 17.5H49.5833V23.3333H43.75V17.5ZM43.75 29.2571H49.5833V35H43.75V29.2571ZM43.75 40.8333H49.5833V46.6667H43.75V40.8333ZM20.4166 40.8362H26.25V46.6696H20.4166V40.8362Z" fill="#4A90E2"/>
</svg>
