<svg width="53" height="47" viewBox="0 0 53 47" fill="none" xmlns="http://www.w3.org/2000/svg">
<path d="M26.6 15.7343C20.7464 15.7343 15.8 20.4757 15.8 26.0866C15.8 31.6976 20.7464 36.439 26.6 36.439C32.4536 36.439 37.4 31.6976 37.4 26.0866C37.4 20.4757 32.4536 15.7343 26.6 15.7343ZM26.6 31.2628C23.7245 31.2628 21.2 28.843 21.2 26.0866C21.2 23.3303 23.7245 20.9105 26.6 20.9105C29.4755 20.9105 32 23.3303 32 26.0866C32 28.843 29.4755 31.2628 26.6 31.2628Z" fill="#C1C1C1"/>
<path d="M47.72 8.44933H40.8929L33.7464 1.52988C33.2528 1.04932 32.5822 0.78093 31.88 0.78093H21.32C20.6177 0.78093 19.9472 1.04932 19.4535 1.52988L12.307 8.44933H5.47995C2.56803 8.44933 0.199951 10.7422 0.199951 13.5616V41.6791C0.199951 44.4985 2.56803 46.7913 5.47995 46.7913H47.72C50.6319 46.7913 53 44.4985 53 41.6791V13.5616C53 10.7422 50.6319 8.44933 47.72 8.44933ZM5.47995 41.6791V13.5616H13.4C14.1022 13.5616 14.7728 13.2932 15.2664 12.8126L22.4129 5.8932H30.787L37.9335 12.8126C38.4272 13.2932 39.0977 13.5616 39.8 13.5616H47.72L47.7252 41.6791H5.47995Z" fill="#C1C1C1"/>
</svg>
