<svg width="70" height="70" viewBox="0 0 70 70" fill="none" xmlns="http://www.w3.org/2000/svg">
<rect x="1.40002" y="49" width="63" height="21" fill="#FDD79E"/>
<path d="M14.5833 8.63336H20.4167V17.3834H14.5833V8.63336ZM26.25 8.63336H32.0833V17.3834H26.25V8.63336ZM37.9167 8.63336H43.75V17.3834H37.9167V8.63336ZM55.4167 29.05H49.5833V26.1334V23.2167H46.6667H11.6667H8.75V26.1334V40.7167V55.3C8.75 60.1242 12.6758 64.05 17.5 64.05H40.8333C45.6575 64.05 49.5833 60.1242 49.5833 55.3H55.4167C58.6338 55.3 61.25 52.6838 61.25 49.4667V34.8834C61.25 31.6663 58.6338 29.05 55.4167 29.05ZM43.75 55.3C43.75 56.91 42.4433 58.2167 40.8333 58.2167H17.5C15.89 58.2167 14.5833 56.91 14.5833 55.3V40.7167V29.05H43.75V31.9667V37.8V52.3834V55.3ZM49.5833 49.4667V37.8V34.8834H55.4167L55.4225 49.4667H49.5833Z" fill="#C99240"/>
</svg>
