<svg width="155" height="46" viewBox="0 0 155 46" fill="none" xmlns="http://www.w3.org/2000/svg">
<path d="M56.1476 43.5983C56.168 43.29 56.1885 42.8174 56.1885 42.4063V36.8371H57.0064V39.7347H57.0269C57.3131 39.2209 57.8448 38.8921 58.581 38.8921C59.7056 38.8921 60.5236 39.8375 60.5031 41.2349C60.5031 42.879 59.4807 43.701 58.4583 43.701C57.8039 43.701 57.2723 43.4544 56.9246 42.8379H56.9042L56.8633 43.5983H56.1476ZM57.0064 41.7487C57.0064 41.8515 57.0269 41.9542 57.0473 42.057C57.2109 42.6324 57.6812 43.0434 58.2947 43.0434C59.174 43.0434 59.6852 42.3241 59.6852 41.276C59.6852 40.3512 59.2149 39.5703 58.3151 39.5703C57.7426 39.5703 57.2109 39.9608 57.0473 40.5979C57.0269 40.7006 57.0064 40.8034 57.0064 40.9472V41.7487Z" fill="#1A446D"/>
<path d="M61.7914 38.9949L62.7934 41.7076C62.8956 42.0159 63.0183 42.3652 63.0797 42.6529H63.1001C63.1819 42.3858 63.2841 42.0159 63.3864 41.6871L64.2861 38.9949H65.1654L63.9181 42.283C63.325 43.8654 62.9161 44.6669 62.3435 45.1602C61.9345 45.5301 61.5256 45.6739 61.3211 45.6945L61.1166 44.9957C61.3211 44.9341 61.6074 44.7902 61.8527 44.5847C62.0777 44.3998 62.364 44.071 62.548 43.6599C62.5889 43.5777 62.6093 43.5161 62.6093 43.4544C62.6093 43.4133 62.5889 43.3311 62.548 43.2284L60.8508 38.9949H61.7914Z" fill="#1A446D"/>
<path d="M67.9464 40.2485C67.9464 39.7758 67.9464 39.3853 67.9055 38.9949H68.6416L68.6825 39.7347H68.703C68.9484 39.3031 69.3778 38.8921 70.1344 38.8921C70.7683 38.8921 71.2386 39.262 71.4226 39.8169H71.4431C71.5862 39.5703 71.7703 39.3648 71.9543 39.2209C72.2201 39.0154 72.5269 38.8921 72.9563 38.8921C73.5697 38.8921 74.4695 39.2826 74.4695 40.8856V43.5983H73.6515V40.9883C73.6515 40.1046 73.3244 39.5703 72.6496 39.5703C72.1792 39.5703 71.8112 39.9197 71.668 40.3307C71.6271 40.454 71.6067 40.5978 71.6067 40.7417V43.5777H70.7887V40.8239C70.7887 40.0841 70.4616 39.5498 69.8277 39.5498C69.3164 39.5498 68.9279 39.9608 68.8052 40.3923C68.7643 40.5156 68.7439 40.6595 68.7439 40.8034V43.5777H67.9259V40.2485H67.9464Z" fill="#1A446D"/>
<path d="M79.9701 41.2555C79.9701 42.9612 78.8046 43.701 77.7004 43.701C76.453 43.701 75.5124 42.7968 75.5124 41.3377C75.5124 39.7964 76.5143 38.8921 77.7821 38.8921C79.0909 38.8921 79.9701 39.858 79.9701 41.2555ZM76.3507 41.3171C76.3507 42.3241 76.9233 43.0845 77.7413 43.0845C78.5387 43.0845 79.1317 42.3241 79.1317 41.2966C79.1317 40.5156 78.7432 39.5292 77.7617 39.5292C76.7597 39.5292 76.3507 40.4334 76.3507 41.3171Z" fill="#1A446D"/>
<path d="M85.1641 41.2555C85.1641 42.9612 83.9985 43.701 82.8943 43.701C81.6469 43.701 80.7063 42.7968 80.7063 41.3377C80.7063 39.7964 81.7083 38.8921 82.9761 38.8921C84.2848 38.8921 85.1641 39.858 85.1641 41.2555ZM81.5242 41.3171C81.5242 42.3241 82.0968 43.0845 82.9147 43.0845C83.7122 43.0845 84.3052 42.3241 84.3052 41.2966C84.3052 40.5156 83.9167 39.5292 82.9352 39.5292C81.9536 39.5292 81.5242 40.4334 81.5242 41.3171Z" fill="#1A446D"/>
<path d="M86.2069 40.2485C86.2069 39.7758 86.2069 39.3853 86.166 38.9949H86.9022L86.9431 39.7553H86.9635C87.1884 39.3237 87.7201 38.8921 88.4767 38.8921C89.1106 38.8921 90.0921 39.262 90.0921 40.8445V43.5983H89.2538V40.9472C89.2538 40.2074 88.9879 39.5909 88.1904 39.5909C87.6383 39.5909 87.2089 39.9813 87.0658 40.454C87.0249 40.5567 87.0044 40.7006 87.0044 40.8445V43.6188H86.166V40.2485H86.2069Z" fill="#1A446D"/>
<path d="M91.4622 36.8576H92.3006V43.5983H91.4622V36.8576Z" fill="#1A446D"/>
<path d="M96.2267 43.5983L96.1654 43.0228H96.1449C95.8996 43.3928 95.3883 43.701 94.7544 43.701C93.8343 43.701 93.364 43.0434 93.364 42.3858C93.364 41.276 94.3455 40.6595 96.1245 40.6801V40.5773C96.1245 40.2074 96.0223 39.5087 95.0816 39.5087C94.6522 39.5087 94.2023 39.632 93.8956 39.858L93.7116 39.3031C94.0796 39.0565 94.6318 38.8921 95.2248 38.8921C96.6153 38.8921 96.9629 39.858 96.9629 40.7828V42.5091C96.9629 42.8995 96.9833 43.29 97.0447 43.6188H96.2267V43.5983ZM96.104 41.2555C95.2043 41.2349 94.1614 41.3993 94.1614 42.283C94.1614 42.8173 94.5295 43.0845 94.9385 43.0845C95.5315 43.0845 95.92 42.7146 96.0427 42.3241C96.0632 42.2419 96.0836 42.1392 96.0836 42.057V41.2555H96.104Z" fill="#1A446D"/>
<path d="M98.4761 38.9949L99.4781 41.7076C99.5803 42.0159 99.703 42.3652 99.7643 42.6529H99.7848C99.8666 42.3858 99.9688 42.0159 100.071 41.6871L100.971 38.9949H101.85L100.603 42.283C100.01 43.8654 99.6008 44.6669 99.0282 45.1602C98.6192 45.5301 98.2103 45.6739 98.0058 45.6945L97.8013 44.9957C98.0058 44.9341 98.2921 44.7902 98.5374 44.5847C98.7624 44.3998 99.0486 44.071 99.2327 43.6599C99.2736 43.5777 99.294 43.5161 99.294 43.4544C99.294 43.4133 99.2736 43.3311 99.2327 43.2284L97.5355 38.9949H98.4761Z" fill="#1A446D"/>
<path d="M103.895 37.6591V38.9743H104.999V39.858H103.895V41.8926C103.895 42.4474 104.038 42.7557 104.488 42.7557C104.692 42.7557 104.836 42.7351 104.938 42.694L104.958 43.5777C104.795 43.6394 104.488 43.701 104.12 43.701C103.69 43.701 103.343 43.5572 103.118 43.3311C102.873 43.064 102.75 42.6529 102.75 42.0364V39.858H102.096V38.9743H102.75V37.9262L103.895 37.6591Z" fill="#1A446D"/>
<path d="M106.635 41.6254C106.655 42.468 107.31 42.8174 108.046 42.8174C108.578 42.8174 108.966 42.7352 109.314 42.6119L109.477 43.4133C109.089 43.5778 108.537 43.7011 107.862 43.7011C106.369 43.7011 105.49 42.7763 105.49 41.3583C105.49 40.0841 106.267 38.8716 107.739 38.8716C109.232 38.8716 109.723 40.1046 109.723 41.1322C109.723 41.3583 109.702 41.5227 109.682 41.6254H106.635ZM108.659 40.8034C108.659 40.3718 108.475 39.6731 107.698 39.6731C106.983 39.6731 106.676 40.3307 106.635 40.8034H108.659Z" fill="#1A446D"/>
<path d="M114.078 43.4544C113.833 43.5777 113.342 43.7011 112.77 43.7011C111.338 43.7011 110.398 42.7763 110.398 41.3377C110.398 39.9402 111.338 38.8716 112.954 38.8716C113.383 38.8716 113.812 38.9743 114.078 39.0977L113.874 39.9813C113.69 39.8991 113.404 39.7964 112.995 39.7964C112.115 39.7964 111.584 40.454 111.584 41.2966C111.584 42.2419 112.197 42.7968 112.995 42.7968C113.404 42.7968 113.69 42.7146 113.915 42.6119L114.078 43.4544Z" fill="#1A446D"/>
<path d="M114.937 36.8576H116.103V39.6114H116.123C116.266 39.3854 116.45 39.2209 116.696 39.0771C116.921 38.9538 117.187 38.8716 117.493 38.8716C118.27 38.8716 119.109 39.3854 119.109 40.8856V43.6188H117.943V41.0294C117.943 40.3512 117.698 39.858 117.064 39.858C116.614 39.858 116.287 40.1663 116.164 40.5157C116.123 40.6184 116.123 40.7417 116.123 40.865V43.6394H114.958V36.8576H114.937Z" fill="#1A446D"/>
<path d="M120.356 40.3513C120.356 39.8169 120.356 39.3648 120.315 38.9743H121.338L121.399 39.6731H121.419C121.624 39.3032 122.115 38.8716 122.892 38.8716C123.689 38.8716 124.528 39.3854 124.528 40.865V43.6188H123.362V41.0089C123.362 40.3513 123.117 39.8375 122.483 39.8375C122.012 39.8375 121.706 40.1663 121.583 40.5157C121.542 40.6184 121.542 40.7623 121.542 40.8856V43.5983H120.376V40.3513H120.356Z" fill="#1A446D"/>
<path d="M130.13 41.2555C130.13 42.9612 128.944 43.7216 127.758 43.7216C126.45 43.7216 125.448 42.8173 125.448 41.3377C125.448 39.8169 126.45 38.8921 127.84 38.8921C129.21 38.8716 130.13 39.8375 130.13 41.2555ZM126.654 41.2966C126.654 42.1803 127.084 42.8584 127.799 42.8584C128.454 42.8584 128.924 42.2008 128.924 41.276C128.924 40.5567 128.597 39.7347 127.799 39.7347C127.002 39.7347 126.654 40.5156 126.654 41.2966Z" fill="#1A446D"/>
<path d="M131.092 36.8576H132.257V43.5983H131.092V36.8576Z" fill="#1A446D"/>
<path d="M137.901 41.2555C137.901 42.9612 136.715 43.7216 135.529 43.7216C134.22 43.7216 133.218 42.8173 133.218 41.3377C133.218 39.8169 134.22 38.8921 135.611 38.8921C136.981 38.8716 137.901 39.8375 137.901 41.2555ZM134.425 41.2966C134.425 42.1803 134.854 42.8584 135.57 42.8584C136.224 42.8584 136.694 42.2008 136.694 41.276C136.694 40.5567 136.367 39.7347 135.57 39.7347C134.752 39.7347 134.425 40.5156 134.425 41.2966Z" fill="#1A446D"/>
<path d="M143.054 38.9743C143.033 39.2826 143.013 39.6731 143.013 40.3102V42.9407C143.013 43.9066 142.809 44.6053 142.338 45.0369C141.847 45.4684 141.193 45.5917 140.559 45.5917C139.966 45.5917 139.353 45.4684 138.944 45.2218L139.189 44.3381C139.475 44.5025 139.966 44.6875 140.539 44.6875C141.295 44.6875 141.868 44.297 141.868 43.29V42.8996H141.847C141.582 43.3106 141.111 43.5777 140.498 43.5777C139.353 43.5777 138.535 42.6324 138.535 41.3172C138.535 39.7964 139.516 38.8716 140.621 38.8716C141.316 38.8716 141.745 39.221 141.95 39.5909H141.97L142.011 38.9743H143.054ZM141.847 40.8239C141.847 40.7212 141.847 40.5979 141.807 40.5157C141.684 40.0841 141.357 39.7553 140.866 39.7553C140.212 39.7553 139.741 40.3307 139.741 41.276C139.741 42.057 140.13 42.6941 140.866 42.6941C141.295 42.6941 141.684 42.4063 141.807 41.9953C141.827 41.872 141.847 41.7076 141.847 41.5843V40.8239Z" fill="#1A446D"/>
<path d="M145.467 37.6796C145.467 38.029 145.221 38.3167 144.813 38.3167C144.424 38.3167 144.179 38.0496 144.179 37.6796C144.179 37.3097 144.444 37.0426 144.833 37.0426C145.201 37.0426 145.446 37.3303 145.467 37.6796ZM144.219 43.5983V38.9743H145.385V43.5983H144.219Z" fill="#1A446D"/>
<path d="M147.471 41.6254C147.491 42.468 148.146 42.8174 148.882 42.8174C149.413 42.8174 149.802 42.7352 150.15 42.6119L150.313 43.4133C149.925 43.5778 149.373 43.7011 148.698 43.7011C147.205 43.7011 146.326 42.7763 146.326 41.3583C146.326 40.0841 147.103 38.8716 148.575 38.8716C150.068 38.8716 150.559 40.1046 150.559 41.1322C150.559 41.3583 150.538 41.5227 150.518 41.6254H147.471ZM149.495 40.8034C149.495 40.3718 149.311 39.6731 148.534 39.6731C147.818 39.6731 147.512 40.3307 147.471 40.8034H149.495Z" fill="#1A446D"/>
<path d="M151.458 42.5296C151.724 42.694 152.215 42.8585 152.644 42.8585C153.156 42.8585 153.38 42.6529 153.38 42.3447C153.38 42.0364 153.196 41.872 152.624 41.6665C151.724 41.3582 151.356 40.865 151.356 40.3101C151.356 39.4881 152.031 38.851 153.094 38.851C153.605 38.851 154.055 38.9743 154.321 39.1182L154.096 39.9402C153.892 39.8169 153.524 39.6731 153.115 39.6731C152.706 39.6731 152.481 39.8786 152.481 40.1663C152.481 40.454 152.706 40.5979 153.278 40.8034C154.117 41.1116 154.505 41.5432 154.505 42.2214C154.505 43.064 153.851 43.6599 152.624 43.6599C152.072 43.6599 151.561 43.5366 151.233 43.3311L151.458 42.5296Z" fill="#1A446D"/>
<path d="M31.3435 23.4995H21.6918C21.8554 24.4037 22.3052 25.123 23.0209 25.6573C23.7366 26.1917 24.6159 26.4588 25.6792 26.4588C27.0288 26.4588 28.1535 26.0067 29.0124 25.123L30.546 26.911C29.9939 27.5686 29.2986 28.0824 28.4602 28.4112C27.6219 28.7605 26.6608 28.9249 25.5975 28.9249C24.2478 28.9249 23.0618 28.6578 22.019 28.1235C20.9965 27.5891 20.199 26.8287 19.6265 25.8629C19.0744 24.897 18.7881 23.8078 18.7881 22.5953C18.7881 21.3828 19.0539 20.3141 19.606 19.3482C20.1581 18.3823 20.9147 17.622 21.8758 17.0876C22.8369 16.5533 23.9411 16.2862 25.1476 16.2862C26.354 16.2862 27.4174 16.5533 28.358 17.0876C29.2986 17.622 30.0348 18.3618 30.5664 19.3277C31.0981 20.2936 31.3639 21.4033 31.3639 22.6775C31.4048 22.8419 31.3844 23.1296 31.3435 23.4995ZM22.8369 19.3893C22.203 19.9442 21.8145 20.6635 21.6713 21.5677H28.6443C28.5216 20.6635 28.1535 19.9442 27.5196 19.3893C26.8857 18.8345 26.1087 18.5468 25.168 18.5468C24.2478 18.5673 23.4708 18.8345 22.8369 19.3893Z" fill="#1A446D"/>
<path d="M53.1212 16.3889L48.5816 28.74H45.8211L42.6516 20.2319L39.4207 28.74H36.6601L32.141 16.3889H34.8607L38.112 25.5135L41.5064 16.3889H43.9194L47.232 25.5546L50.5651 16.3889H53.1212Z" fill="#1A446D"/>
<path d="M56.9042 28.1029C55.9022 27.5686 55.1252 26.8082 54.573 25.8423C54.0209 24.8764 53.7346 23.7872 53.7346 22.5747C53.7346 21.3622 54.0209 20.273 54.573 19.3072C55.1252 18.3413 55.9022 17.6014 56.9042 17.0671C57.9062 16.5328 59.0308 16.2656 60.2577 16.2656C61.5256 16.2656 62.6502 16.5328 63.6522 17.0671C64.6542 17.6014 65.4312 18.3618 65.9833 19.3072C66.5355 20.273 66.8217 21.3622 66.8217 22.5747C66.8217 23.7872 66.5355 24.8764 65.9833 25.8423C65.4312 26.8082 64.6337 27.5686 63.6522 28.1029C62.6502 28.6373 61.5256 28.9044 60.2577 28.9044C59.0308 28.9044 57.9062 28.6373 56.9042 28.1029ZM62.8956 25.3697C63.5909 24.6504 63.9385 23.7256 63.9385 22.5747C63.9385 21.4239 63.5909 20.4786 62.8956 19.7798C62.2004 19.0605 61.3211 18.7112 60.2782 18.7112C59.2149 18.7112 58.356 19.0605 57.6608 19.7798C56.986 20.4991 56.6383 21.4239 56.6383 22.5747C56.6383 23.7256 56.986 24.6709 57.6608 25.3697C58.3356 26.0889 59.2149 26.4383 60.2782 26.4383C61.3415 26.4383 62.2208 26.0889 62.8956 25.3697Z" fill="#1A446D"/>
<path d="M76.7188 16.2451V18.9989C76.4734 18.9578 76.2485 18.9372 76.044 18.9372C74.9193 18.9372 74.0401 19.266 73.4266 19.9237C72.7927 20.5813 72.486 21.5266 72.486 22.7597V28.7605H69.6027V16.3889H72.3428V18.1974C73.1812 16.9027 74.6331 16.2451 76.7188 16.2451Z" fill="#1A446D"/>
<path d="M84.1826 23.4379L82.0355 25.4724V28.74H79.1522V11.58H82.0355V21.9582L88.0064 16.4095H91.4622L86.3297 21.5677L91.953 28.74H88.4563L84.1826 23.4379Z" fill="#1A446D"/>
<path d="M103.731 17.0465C104.672 17.5809 105.408 18.3207 105.96 19.266C106.492 20.2319 106.758 21.3211 106.758 22.5747C106.758 23.8283 106.492 24.9381 105.96 25.904C105.429 26.8699 104.672 27.6097 103.731 28.144C102.791 28.6783 101.707 28.925 100.521 28.925C98.8646 28.925 97.5559 28.3701 96.5744 27.2603V33.2612H93.6911V16.4095H96.4312V18.033C96.9016 17.437 97.4946 17.0054 98.1898 16.7177C98.8851 16.43 99.6621 16.2862 100.5 16.2862C101.707 16.2451 102.77 16.5122 103.731 17.0465ZM102.791 25.3697C103.466 24.6504 103.813 23.7256 103.813 22.5747C103.813 21.4239 103.466 20.4785 102.791 19.7798C102.116 19.0605 101.237 18.7112 100.173 18.7112C99.4781 18.7112 98.8646 18.8756 98.3125 19.1838C97.7604 19.4921 97.331 19.9442 97.0038 20.5402C96.6766 21.1362 96.513 21.8144 96.513 22.5747C96.513 23.3557 96.6766 24.0338 97.0038 24.6093C97.331 25.2052 97.7604 25.6574 98.3125 25.9656C98.8646 26.2739 99.4781 26.4383 100.173 26.4383C101.237 26.4383 102.116 26.0889 102.791 25.3697Z" fill="#1A446D"/>
<path d="M109.498 11.58H112.381V28.7605H109.498V11.58Z" fill="#1A446D"/>
<path d="M124.998 17.5603C125.959 18.4235 126.429 19.7387 126.429 21.5061V28.7605H123.71V27.2603C123.362 27.7947 122.851 28.2057 122.196 28.4934C121.542 28.7811 120.765 28.925 119.845 28.925C118.925 28.925 118.127 28.7605 117.432 28.4523C116.737 28.144 116.205 27.6919 115.837 27.137C115.469 26.5822 115.264 25.9451 115.264 25.2258C115.264 24.1161 115.673 23.2324 116.491 22.5542C117.309 21.876 118.597 21.5472 120.376 21.5472H123.546V21.3622C123.546 20.4991 123.28 19.8415 122.769 19.3688C122.258 18.8961 121.481 18.6701 120.479 18.6701C119.783 18.6701 119.109 18.7728 118.434 18.9989C117.759 19.2249 117.207 19.5127 116.737 19.9031L115.612 17.8069C116.266 17.3137 117.023 16.9438 117.943 16.6766C118.843 16.4095 119.804 16.2862 120.826 16.2862C122.646 16.2451 124.037 16.6766 124.998 17.5603ZM122.38 26.315C122.933 25.9862 123.342 25.5135 123.566 24.897V23.4584H120.601C118.945 23.4584 118.107 24.0133 118.107 25.1025C118.107 25.6368 118.311 26.0478 118.72 26.3561C119.129 26.6644 119.702 26.8288 120.438 26.8288C121.174 26.8082 121.808 26.6438 122.38 26.315Z" fill="#1A446D"/>
<path d="M132.441 28.1029C131.419 27.5686 130.642 26.8082 130.069 25.8423C129.497 24.8764 129.21 23.7872 129.21 22.5747C129.21 21.3622 129.497 20.273 130.069 19.3072C130.642 18.3413 131.419 17.6014 132.421 17.0671C133.423 16.5328 134.568 16.2656 135.856 16.2656C137.062 16.2656 138.126 16.5122 139.046 17.0055C139.966 17.4987 140.641 18.218 141.111 19.1427L138.903 20.4375C138.555 19.862 138.105 19.4305 137.574 19.1427C137.042 18.855 136.469 18.7112 135.836 18.7112C134.752 18.7112 133.873 19.0605 133.157 19.7593C132.441 20.458 132.093 21.4033 132.093 22.5747C132.093 23.7461 132.441 24.6915 133.136 25.3902C133.832 26.0889 134.731 26.4383 135.815 26.4383C136.449 26.4383 137.022 26.2945 137.553 26.0067C138.085 25.719 138.514 25.2875 138.882 24.712L141.091 26.0067C140.621 26.9315 139.925 27.6508 139.005 28.144C138.085 28.6373 137.042 28.9044 135.836 28.9044C134.609 28.9044 133.464 28.6373 132.441 28.1029Z" fill="#1A446D"/>
<path d="M154.955 23.4995H145.303C145.467 24.4037 145.917 25.123 146.632 25.6573C147.348 26.1917 148.227 26.4588 149.291 26.4588C150.64 26.4588 151.745 26.0067 152.624 25.123L154.157 26.911C153.605 27.5686 152.91 28.0824 152.072 28.4112C151.233 28.7605 150.272 28.9249 149.209 28.9249C147.859 28.9249 146.673 28.6578 145.63 28.1235C144.608 27.5891 143.811 26.8287 143.238 25.8629C142.686 24.897 142.4 23.8078 142.4 22.5953C142.4 21.3828 142.665 20.3141 143.218 19.3482C143.77 18.3823 144.526 17.622 145.487 17.0876C146.448 16.5533 147.553 16.2862 148.759 16.2862C149.966 16.2862 151.029 16.5533 151.969 17.0876C152.91 17.622 153.646 18.3618 154.178 19.3277C154.71 20.2936 154.975 21.4033 154.975 22.6775C154.996 22.8419 154.975 23.1296 154.955 23.4995ZM146.448 19.3893C145.814 19.9442 145.426 20.6635 145.283 21.5677H152.256C152.133 20.6635 151.765 19.9442 151.131 19.3893C150.497 18.8345 149.72 18.5468 148.78 18.5468C147.859 18.5673 147.082 18.8345 146.448 19.3893Z" fill="#1A446D"/>
<path d="M2.71568 7.18252C9.01383 -2.00372 24.248 -2.43529 36.7625 6.21663C40.9136 9.09375 44.2467 12.6285 46.6187 16.3688C44.4103 12.9984 41.3634 9.83358 37.6213 7.22362C25.8225 -0.935075 11.4472 -0.524057 5.51713 8.14841C-0.412953 16.8209 4.31066 30.4461 16.1095 38.6048C27.8878 46.7635 42.2632 46.3525 48.1932 37.68C49.4815 35.8099 50.2585 33.7137 50.5857 31.4942C50.279 34.0219 49.4406 36.4058 47.9888 38.502C41.6906 47.6883 26.4564 48.1198 13.9419 39.4679C1.44787 30.8366 -3.58248 16.3688 2.71568 7.18252Z" fill="#1A446D"/>
</svg>
