<svg width="210" height="63" viewBox="0 0 210 63" fill="none" xmlns="http://www.w3.org/2000/svg">
<path d="M76.0709 59.529C76.0986 59.1081 76.1263 58.4627 76.1263 57.9015V50.2972H77.2345V54.2537H77.2622C77.6501 53.5522 78.3704 53.1032 79.3678 53.1032C80.8915 53.1032 81.9997 54.394 81.972 56.3021C81.972 58.5469 80.5868 59.6693 79.2015 59.6693C78.315 59.6693 77.5947 59.3325 77.1237 58.4907H77.096L77.0406 59.529H76.0709ZM77.2345 57.0036C77.2345 57.1439 77.2622 57.2842 77.2899 57.4245C77.5116 58.2101 78.1488 58.7713 78.9799 58.7713C80.1712 58.7713 80.8638 57.7892 80.8638 56.3582C80.8638 55.0955 80.2266 54.0292 79.0076 54.0292C78.2319 54.0292 77.5116 54.5623 77.2899 55.4322C77.2622 55.5725 77.2345 55.7128 77.2345 55.9092V57.0036Z" fill="white"/>
<path d="M83.7174 53.2435L85.0749 56.9474C85.2134 57.3683 85.3796 57.8454 85.4628 58.2382H85.4905C85.6013 57.8734 85.7398 57.3683 85.8783 56.9194L87.0973 53.2435H88.2886L86.5986 57.7331C85.7952 59.8937 85.2411 60.9881 84.4654 61.6615C83.9113 62.1666 83.3572 62.363 83.0802 62.3911L82.8031 61.437C83.0802 61.3529 83.468 61.1564 83.8005 60.8758C84.1052 60.6233 84.4931 60.1743 84.7424 59.6131C84.7978 59.5009 84.8256 59.4167 84.8256 59.3325C84.8256 59.2764 84.7978 59.1642 84.7424 59.0239L82.443 53.2435H83.7174Z" fill="white"/>
<path d="M92.0564 54.9552C92.0564 54.3098 92.0564 53.7767 92.001 53.2435H92.9984L93.0538 54.2537H93.0815C93.4139 53.6644 93.9957 53.1032 95.0208 53.1032C95.8796 53.1032 96.5168 53.6083 96.7662 54.3659H96.7939C96.9878 54.0292 97.2372 53.7486 97.4865 53.5522C97.8467 53.2716 98.2622 53.1032 98.844 53.1032C99.6751 53.1032 100.894 53.6364 100.894 55.825V59.529H99.786V55.9653C99.786 54.7588 99.3427 54.0292 98.4284 54.0292C97.7912 54.0292 97.2926 54.5062 97.0986 55.0674C97.0432 55.2358 97.0155 55.4322 97.0155 55.6286V59.5009H95.9073V55.7409C95.9073 54.7307 95.4641 54.0011 94.6052 54.0011C93.9126 54.0011 93.3862 54.5623 93.22 55.1516C93.1646 55.32 93.1369 55.5164 93.1369 55.7128V59.5009H92.0287V54.9552H92.0564Z" fill="white"/>
<path d="M108.347 56.3301C108.347 58.6591 106.767 59.6693 105.271 59.6693C103.581 59.6693 102.307 58.4346 102.307 56.4424C102.307 54.3379 103.665 53.1032 105.382 53.1032C107.155 53.1032 108.347 54.422 108.347 56.3301ZM103.443 56.4143C103.443 57.7892 104.219 58.8275 105.327 58.8275C106.407 58.8275 107.211 57.7892 107.211 56.3862C107.211 55.32 106.684 53.9731 105.355 53.9731C103.997 53.9731 103.443 55.2077 103.443 56.4143Z" fill="white"/>
<path d="M115.384 56.3301C115.384 58.6591 113.804 59.6693 112.308 59.6693C110.618 59.6693 109.344 58.4346 109.344 56.4424C109.344 54.3379 110.702 53.1032 112.419 53.1032C114.192 53.1032 115.384 54.422 115.384 56.3301ZM110.452 56.4143C110.452 57.7892 111.228 58.8275 112.336 58.8275C113.417 58.8275 114.22 57.7892 114.22 56.3862C114.22 55.32 113.694 53.9731 112.364 53.9731C111.034 53.9731 110.452 55.2077 110.452 56.4143Z" fill="white"/>
<path d="M116.797 54.9552C116.797 54.3098 116.797 53.7767 116.741 53.2435H117.738L117.794 54.2817H117.822C118.126 53.6925 118.847 53.1032 119.872 53.1032C120.731 53.1032 122.06 53.6083 122.06 55.7689V59.529H120.924V55.9092C120.924 54.8991 120.564 54.0573 119.484 54.0573C118.736 54.0573 118.154 54.5904 117.96 55.2358C117.905 55.3761 117.877 55.5725 117.877 55.7689V59.557H116.741V54.9552H116.797Z" fill="white"/>
<path d="M123.917 50.3253H125.052V59.529H123.917V50.3253Z" fill="white"/>
<path d="M130.372 59.529L130.289 58.7433H130.261C129.928 59.2484 129.236 59.6693 128.377 59.6693C127.13 59.6693 126.493 58.7713 126.493 57.8734C126.493 56.3582 127.823 55.5164 130.233 55.5444V55.4041C130.233 54.8991 130.095 53.945 128.82 53.945C128.238 53.945 127.629 54.1134 127.213 54.422L126.964 53.6644C127.463 53.3277 128.211 53.1032 129.014 53.1032C130.898 53.1032 131.369 54.422 131.369 55.6847V58.0418C131.369 58.5749 131.397 59.1081 131.48 59.557H130.372V59.529ZM130.205 56.3301C128.986 56.3021 127.574 56.5265 127.574 57.7331C127.574 58.4627 128.072 58.8275 128.626 58.8275C129.43 58.8275 129.956 58.3224 130.122 57.7892C130.15 57.677 130.178 57.5367 130.178 57.4245V56.3301H130.205Z" fill="white"/>
<path d="M133.419 53.2435L134.777 56.9474C134.915 57.3683 135.081 57.8454 135.165 58.2382H135.192C135.303 57.8734 135.442 57.3683 135.58 56.9194L136.799 53.2435H137.99L136.3 57.7331C135.497 59.8937 134.943 60.9881 134.167 61.6615C133.613 62.1666 133.059 62.363 132.782 62.3911L132.505 61.437C132.782 61.3529 133.17 61.1564 133.502 60.8758C133.807 60.6233 134.195 60.1743 134.444 59.6131C134.5 59.5009 134.527 59.4167 134.527 59.3325C134.527 59.2764 134.5 59.1642 134.444 59.0239L132.145 53.2435H133.419Z" fill="white"/>
<path d="M140.761 51.4196V53.2154H142.257V54.422H140.761V57.2C140.761 57.9576 140.955 58.3785 141.564 58.3785C141.841 58.3785 142.035 58.3504 142.174 58.2943L142.202 59.5009C141.98 59.5851 141.564 59.6693 141.066 59.6693C140.484 59.6693 140.013 59.4728 139.708 59.1642C139.376 58.7994 139.209 58.2382 139.209 57.3964V54.422H138.323V53.2154H139.209V51.7844L140.761 51.4196Z" fill="white"/>
<path d="M144.473 56.8352C144.501 57.9857 145.388 58.4627 146.385 58.4627C147.105 58.4627 147.632 58.3505 148.103 58.1821L148.324 59.2765C147.798 59.5009 147.05 59.6693 146.136 59.6693C144.113 59.6693 142.922 58.4066 142.922 56.4704C142.922 54.7307 143.975 53.0752 145.969 53.0752C147.992 53.0752 148.657 54.7588 148.657 56.1618C148.657 56.4704 148.629 56.6949 148.601 56.8352H144.473ZM147.216 55.7128C147.216 55.1236 146.967 54.1695 145.914 54.1695C144.944 54.1695 144.529 55.0674 144.473 55.7128H147.216Z" fill="white"/>
<path d="M154.558 59.3326C154.225 59.5009 153.56 59.6693 152.785 59.6693C150.845 59.6693 149.571 58.4066 149.571 56.4424C149.571 54.5343 150.845 53.0752 153.034 53.0752C153.616 53.0752 154.198 53.2155 154.558 53.3838L154.281 54.5904C154.031 54.4782 153.643 54.3379 153.089 54.3379C151.898 54.3379 151.178 55.2358 151.178 56.3863C151.178 57.677 152.009 58.4347 153.089 58.4347C153.643 58.4347 154.031 58.3224 154.336 58.1821L154.558 59.3326Z" fill="white"/>
<path d="M155.721 50.3253H157.3V54.0853H157.328C157.522 53.7767 157.771 53.5522 158.104 53.3557C158.409 53.1874 158.769 53.0751 159.184 53.0751C160.237 53.0751 161.373 53.7767 161.373 55.825V59.557H159.794V56.0215C159.794 55.0955 159.461 54.422 158.603 54.422C157.993 54.422 157.55 54.8429 157.384 55.32C157.328 55.4603 157.328 55.6286 157.328 55.797V59.5851H155.749V50.3253H155.721Z" fill="white"/>
<path d="M163.063 55.0955C163.063 54.3659 163.063 53.7486 163.008 53.2155H164.393L164.476 54.1695H164.504C164.781 53.6644 165.446 53.0752 166.498 53.0752C167.579 53.0752 168.715 53.7767 168.715 55.797V59.557H167.136V55.9934C167.136 55.0955 166.803 54.394 165.944 54.394C165.307 54.394 164.892 54.843 164.725 55.32C164.67 55.4603 164.67 55.6567 164.67 55.8251V59.529H163.091V55.0955H163.063Z" fill="white"/>
<path d="M176.306 56.3301C176.306 58.6591 174.699 59.6973 173.092 59.6973C171.319 59.6973 169.961 58.4627 169.961 56.4424C169.961 54.3659 171.319 53.1032 173.203 53.1032C175.059 53.0751 176.306 54.394 176.306 56.3301ZM171.596 56.3862C171.596 57.5928 172.178 58.5188 173.147 58.5188C174.034 58.5188 174.671 57.6209 174.671 56.3582C174.671 55.3761 174.228 54.2537 173.147 54.2537C172.067 54.2537 171.596 55.32 171.596 56.3862Z" fill="white"/>
<path d="M177.608 50.3253H179.187V59.529H177.608V50.3253Z" fill="white"/>
<path d="M186.833 56.3301C186.833 58.6591 185.227 59.6973 183.62 59.6973C181.847 59.6973 180.489 58.4627 180.489 56.4424C180.489 54.3659 181.847 53.1032 183.731 53.1032C185.587 53.0751 186.833 54.394 186.833 56.3301ZM182.124 56.3862C182.124 57.5928 182.705 58.5188 183.675 58.5188C184.562 58.5188 185.199 57.6209 185.199 56.3582C185.199 55.3761 184.756 54.2537 183.675 54.2537C182.567 54.2537 182.124 55.32 182.124 56.3862Z" fill="white"/>
<path d="M193.815 53.2155C193.787 53.6364 193.76 54.1695 193.76 55.0394V58.6311C193.76 59.9499 193.483 60.9039 192.845 61.4932C192.18 62.0825 191.294 62.2508 190.435 62.2508C189.632 62.2508 188.8 62.0825 188.246 61.7457L188.579 60.5392C188.967 60.7636 189.632 61.0162 190.407 61.0162C191.432 61.0162 192.208 60.483 192.208 59.1081V58.5749H192.18C191.82 59.1362 191.183 59.5009 190.352 59.5009C188.8 59.5009 187.692 58.2102 187.692 56.4143C187.692 54.3379 189.022 53.0752 190.518 53.0752C191.46 53.0752 192.042 53.5522 192.319 54.0573H192.347L192.402 53.2155H193.815ZM192.18 55.7409C192.18 55.6006 192.18 55.4322 192.125 55.32C191.959 54.7307 191.516 54.2818 190.851 54.2818C189.964 54.2818 189.327 55.0674 189.327 56.3582C189.327 57.4245 189.853 58.2943 190.851 58.2943C191.432 58.2943 191.959 57.9015 192.125 57.3403C192.153 57.1719 192.18 56.9475 192.18 56.7791V55.7409Z" fill="white"/>
<path d="M197.084 51.4476C197.084 51.9247 196.752 52.3175 196.198 52.3175C195.671 52.3175 195.339 51.9527 195.339 51.4476C195.339 50.9426 195.699 50.5778 196.225 50.5778C196.724 50.5778 197.056 50.9706 197.084 51.4476ZM195.394 59.529V53.2154H196.973V59.529H195.394Z" fill="white"/>
<path d="M199.799 56.8352C199.827 57.9857 200.713 58.4627 201.711 58.4627C202.431 58.4627 202.957 58.3505 203.428 58.1821L203.65 59.2765C203.124 59.5009 202.376 59.6693 201.461 59.6693C199.439 59.6693 198.248 58.4066 198.248 56.4704C198.248 54.7307 199.3 53.0752 201.295 53.0752C203.318 53.0752 203.983 54.7588 203.983 56.1618C203.983 56.4704 203.955 56.6949 203.927 56.8352H199.799ZM202.542 55.7128C202.542 55.1236 202.293 54.1695 201.24 54.1695C200.27 54.1695 199.855 55.0674 199.799 55.7128H202.542Z" fill="white"/>
<path d="M205.202 58.0698C205.562 58.2943 206.227 58.5188 206.808 58.5188C207.501 58.5188 207.806 58.2382 207.806 57.8173C207.806 57.3964 207.556 57.1719 206.781 56.8913C205.562 56.4704 205.063 55.797 205.063 55.0394C205.063 53.9169 205.977 53.0471 207.418 53.0471C208.111 53.0471 208.72 53.2154 209.08 53.4119L208.775 54.5343C208.498 54.3659 208 54.1695 207.446 54.1695C206.891 54.1695 206.587 54.4501 206.587 54.8429C206.587 55.2358 206.891 55.4322 207.667 55.7128C208.803 56.1337 209.329 56.723 209.329 57.6489C209.329 58.7994 208.443 59.6132 206.781 59.6132C206.033 59.6132 205.34 59.4448 204.897 59.1642L205.202 58.0698Z" fill="white"/>
<path d="M42.4654 32.0862H29.3889C29.6105 33.3208 30.22 34.3029 31.1897 35.0325C32.1593 35.7621 33.3506 36.1268 34.7912 36.1268C36.6197 36.1268 38.1435 35.5095 39.3071 34.3029L41.3849 36.7442C40.6369 37.6421 39.6949 38.3436 38.5591 38.7925C37.4232 39.2696 36.1211 39.494 34.6804 39.494C32.8519 39.494 31.2451 39.1293 29.8321 38.3997C28.4469 37.6701 27.3664 36.6319 26.5907 35.3131C25.8427 33.9943 25.4548 32.5071 25.4548 30.8515C25.4548 29.196 25.815 27.7369 26.563 26.418C27.311 25.0992 28.3361 24.061 29.6382 23.3314C30.9403 22.6019 32.4364 22.2371 34.0709 22.2371C35.7055 22.2371 37.1461 22.6019 38.4205 23.3314C39.6949 24.061 40.6923 25.0712 41.4126 26.39C42.1329 27.7088 42.4931 29.2241 42.4931 30.9638C42.5485 31.1883 42.5208 31.5811 42.4654 32.0862ZM30.9403 26.4742C30.0815 27.2318 29.5551 28.2139 29.3612 29.4485H38.8084C38.6422 28.2139 38.1435 27.2318 37.2846 26.4742C36.4258 25.7165 35.373 25.3237 34.0986 25.3237C32.8519 25.3518 31.7992 25.7165 30.9403 26.4742Z" fill="white"/>
<path d="M71.9707 22.3774L65.8203 39.2415H62.0802L57.786 27.6246L53.4087 39.2415H49.6686L43.5459 22.3774H47.2306L51.6356 34.8361L56.2345 22.3774H59.5037L63.9918 34.8922L68.5076 22.3774H71.9707Z" fill="white"/>
<path d="M77.096 38.3717C75.7385 37.6421 74.6857 36.6039 73.9377 35.2851C73.1897 33.9662 72.8018 32.479 72.8018 30.8235C72.8018 29.168 73.1897 27.6808 73.9377 26.3619C74.6857 25.0431 75.7385 24.033 77.096 23.3034C78.4535 22.5738 79.9773 22.209 81.6395 22.209C83.3572 22.209 84.881 22.5738 86.2385 23.3034C87.596 24.033 88.6488 25.0712 89.3968 26.3619C90.1448 27.6808 90.5327 29.168 90.5327 30.8235C90.5327 32.479 90.1448 33.9662 89.3968 35.2851C88.6488 36.6039 87.5683 37.6421 86.2385 38.3717C84.881 39.1012 83.3572 39.466 81.6395 39.466C79.9773 39.466 78.4535 39.1012 77.096 38.3717ZM85.2134 34.6397C86.1554 33.6576 86.6264 32.3949 86.6264 30.8235C86.6264 29.2521 86.1554 27.9614 85.2134 27.0073C84.2715 26.0252 83.0802 25.5482 81.6672 25.5482C80.2266 25.5482 79.063 26.0252 78.1211 27.0073C77.2068 27.9894 76.7358 29.2521 76.7358 30.8235C76.7358 32.3949 77.2068 33.6856 78.1211 34.6397C79.0353 35.6218 80.2266 36.0988 81.6672 36.0988C83.1079 36.0988 84.2992 35.6218 85.2134 34.6397Z" fill="white"/>
<path d="M103.942 22.181V25.941C103.609 25.8849 103.304 25.8568 103.027 25.8568C101.504 25.8568 100.312 26.3058 99.4812 27.2037C98.6224 28.1016 98.2068 29.3924 98.2068 31.076V39.2696H94.3005V22.3774H98.0129V24.8467C99.1488 23.0789 101.116 22.181 103.942 22.181Z" fill="white"/>
<path d="M114.054 32.002L111.145 34.78V39.2415H107.238V15.8113H111.145V29.9817L119.235 22.4055H123.917L116.963 29.4485L124.582 39.2415H119.844L114.054 32.002Z" fill="white"/>
<path d="M140.539 23.2753C141.814 24.0049 142.811 25.0151 143.559 26.3058C144.279 27.6246 144.64 29.1118 144.64 30.8235C144.64 32.5352 144.279 34.0504 143.559 35.3692C142.839 36.6881 141.814 37.6982 140.539 38.4278C139.265 39.1573 137.797 39.4941 136.19 39.4941C133.946 39.4941 132.173 38.7364 130.843 37.2212V45.4147H126.936V22.4055H130.649V24.6222C131.286 23.8085 132.089 23.2192 133.031 22.8264C133.973 22.4335 135.026 22.2371 136.162 22.2371C137.797 22.181 139.237 22.5458 140.539 23.2753ZM139.265 34.6397C140.179 33.6576 140.65 32.3949 140.65 30.8235C140.65 29.2521 140.179 27.9614 139.265 27.0073C138.351 26.0252 137.159 25.5482 135.719 25.5482C134.777 25.5482 133.946 25.7727 133.198 26.1936C132.45 26.6145 131.868 27.2318 131.425 28.0455C130.981 28.8593 130.76 29.7853 130.76 30.8235C130.76 31.8898 130.981 32.8158 131.425 33.6014C131.868 34.4152 132.45 35.0325 133.198 35.4534C133.946 35.8743 134.777 36.0988 135.719 36.0988C137.159 36.0988 138.351 35.6218 139.265 34.6397Z" fill="white"/>
<path d="M148.352 15.8113H152.258V39.2696H148.352V15.8113Z" fill="white"/>
<path d="M169.352 23.9768C170.654 25.1554 171.291 26.9512 171.291 29.3644V39.2696H167.607V37.2212C167.136 37.9508 166.443 38.512 165.556 38.9048C164.67 39.2976 163.617 39.4941 162.37 39.4941C161.124 39.4941 160.043 39.2696 159.101 38.8487C158.159 38.4278 157.439 37.8105 156.94 37.0528C156.442 36.2952 156.165 35.4254 156.165 34.4432C156.165 32.928 156.719 31.7214 157.827 30.7954C158.935 29.8695 160.68 29.4205 163.091 29.4205H167.385V29.168C167.385 27.9894 167.025 27.0915 166.332 26.4461C165.64 25.8007 164.587 25.4921 163.229 25.4921C162.287 25.4921 161.373 25.6324 160.459 25.941C159.545 26.2497 158.797 26.6425 158.159 27.1757L156.636 24.3136C157.522 23.6401 158.547 23.135 159.794 22.7702C161.013 22.4055 162.315 22.2371 163.7 22.2371C166.166 22.181 168.05 22.7702 169.352 23.9768ZM165.806 35.9304C166.554 35.4815 167.108 34.8361 167.413 33.9943V32.0301H163.395C161.151 32.0301 160.016 32.7877 160.016 34.2749C160.016 35.0044 160.293 35.5657 160.847 35.9866C161.401 36.4075 162.176 36.6319 163.174 36.6319C164.171 36.6039 165.03 36.3794 165.806 35.9304Z" fill="white"/>
<path d="M179.436 38.3717C178.051 37.6421 176.998 36.6039 176.223 35.2851C175.447 33.9662 175.059 32.479 175.059 30.8235C175.059 29.168 175.447 27.6808 176.223 26.3619C176.998 25.0431 178.051 24.033 179.409 23.3034C180.766 22.5738 182.318 22.209 184.063 22.209C185.698 22.209 187.138 22.5458 188.385 23.2192C189.632 23.8927 190.546 24.8748 191.183 26.1375L188.191 27.9052C187.72 27.1196 187.111 26.5303 186.39 26.1375C185.67 25.7446 184.894 25.5482 184.035 25.5482C182.567 25.5482 181.376 26.0252 180.406 26.9793C179.436 27.9333 178.965 29.2241 178.965 30.8235C178.965 32.4229 179.436 33.7137 180.378 34.6677C181.32 35.6218 182.539 36.0988 184.008 36.0988C184.866 36.0988 185.642 35.9024 186.362 35.5095C187.083 35.1167 187.665 34.5274 188.163 33.7417L191.155 35.5095C190.518 36.7722 189.576 37.7543 188.33 38.4278C187.083 39.1012 185.67 39.466 184.035 39.466C182.373 39.466 180.822 39.1012 179.436 38.3717Z" fill="white"/>
<path d="M209.939 32.0862H196.862C197.084 33.3208 197.694 34.3029 198.663 35.0325C199.633 35.7621 200.824 36.1268 202.265 36.1268C204.093 36.1268 205.589 35.5095 206.781 34.3029L208.859 36.7442C208.11 37.6421 207.169 38.3436 206.033 38.7925C204.897 39.2696 203.595 39.494 202.154 39.494C200.326 39.494 198.719 39.1293 197.306 38.3997C195.921 37.6701 194.84 36.6319 194.064 35.3131C193.316 33.9943 192.928 32.5071 192.928 30.8515C192.928 29.196 193.289 27.7369 194.037 26.418C194.785 25.0992 195.81 24.061 197.112 23.3314C198.414 22.6019 199.91 22.2371 201.545 22.2371C203.179 22.2371 204.62 22.6019 205.894 23.3314C207.169 24.061 208.166 25.0712 208.886 26.39C209.607 27.7088 209.967 29.2241 209.967 30.9638C209.994 31.1883 209.967 31.5811 209.939 32.0862ZM198.414 26.4742C197.555 27.2318 197.029 28.2139 196.835 29.4485H206.282C206.116 28.2139 205.617 27.2318 204.758 26.4742C203.899 25.7165 202.847 25.3237 201.572 25.3237C200.326 25.3518 199.273 25.7165 198.414 26.4742Z" fill="white"/>
<path d="M3.6793 9.80698C12.2123 -2.73588 32.8521 -3.32514 49.8073 8.48816C55.4313 12.4166 59.9471 17.2429 63.1608 22.3498C60.1687 17.748 56.0408 13.4267 50.9708 9.8631C34.9854 -1.27675 15.5091 -0.715551 7.47481 11.1258C-0.559484 22.9672 5.84025 41.571 21.8257 52.7109C37.7835 63.8507 57.2598 63.2895 65.2941 51.4482C67.0394 48.8947 68.0922 46.0326 68.5355 43.0021C68.1199 46.4535 66.984 49.7084 65.017 52.5706C56.484 65.1134 35.8442 65.7027 18.8891 53.8894C1.96162 42.1042 -4.85368 22.3498 3.6793 9.80698Z" fill="white"/>
</svg>
