<svg width="70" height="70" viewBox="0 0 70 70" fill="none" xmlns="http://www.w3.org/2000/svg">
<rect x="3.5" y="49" width="63" height="21" fill="#FFC3C3"/>
<path d="M55 25H47.5V20C47.5 17.2425 45.2575 15 42.5 15H27.5C24.7425 15 22.5 17.2425 22.5 20V25H15C12.2425 25 10 27.2425 10 30V55C10 57.7575 12.2425 60 15 60H55C57.7575 60 60 57.7575 60 55V30C60 27.2425 57.7575 25 55 25ZM27.5 20H42.5V25H27.5V20ZM15 55V30H25H45H55L55.0025 55H15Z" fill="#EA5656"/>
<path d="M37.5 33H32.5V40.5H25V45.5H32.5V53H37.5V45.5H45V40.5H37.5V33Z" fill="#FF8A8A"/>
</svg>
