<svg width="22" height="22" viewBox="0 0 22 22" fill="none" xmlns="http://www.w3.org/2000/svg">
<path d="M1.24998 12.0833H2.33331V14.25V19.6667C2.33331 20.8616 3.30506 21.8333 4.49998 21.8333H17.5C18.6949 21.8333 19.6666 20.8616 19.6666 19.6667V14.25V12.0833H20.75C21.1876 12.0833 21.5841 11.819 21.751 11.4149C21.9189 11.0097 21.8257 10.5439 21.5159 10.2341L11.7659 0.484069C11.3423 0.060486 10.6576 0.060486 10.2341 0.484069L0.484065 10.2341C0.174231 10.5439 0.0810646 11.0097 0.248981 11.4149C0.415815 11.819 0.812315 12.0833 1.24998 12.0833ZM11 2.78182L17.5 9.28182V14.25L17.5011 19.6667H4.49998V14.25V11V9.28182L11 2.78182Z" fill="#265685"/>
</svg>
