<svg width="55" height="59" viewBox="0 0 55 59" fill="none" xmlns="http://www.w3.org/2000/svg">
<path d="M27.5 0C19.0758 0 12.2222 6.85361 12.2222 15.2778C12.2222 23.7019 19.0758 30.5556 27.5 30.5556C35.9242 30.5556 42.7778 23.7019 42.7778 15.2778C42.7778 6.85361 35.9242 0 27.5 0ZM27.5 24.4444C22.4461 24.4444 18.3333 20.3317 18.3333 15.2778C18.3333 10.2239 22.4461 6.11111 27.5 6.11111C32.5539 6.11111 36.6667 10.2239 36.6667 15.2778C36.6667 20.3317 32.5539 24.4444 27.5 24.4444ZM55 58.0555V55C55 43.2086 45.4025 33.6111 33.6111 33.6111H21.3889C9.59445 33.6111 0 43.2086 0 55V58.0555H6.11111V55C6.11111 46.5758 12.9647 39.7222 21.3889 39.7222H33.6111C42.0353 39.7222 48.8889 46.5758 48.8889 55V58.0555H55Z" fill="#C1C1C1"/>
</svg>
