<svg width="116" height="108" viewBox="0 0 116 108" fill="none" xmlns="http://www.w3.org/2000/svg">
<path d="M105 48C105 77.5472 150.5 107.5 49 107.5C21.938 107.5 0 83.5472 0 54C0 24.4528 21.938 0.5 49 0.5C76.062 0.5 105 18.4528 105 48Z" fill="#1A446D" fill-opacity="0.7"/>
<path d="M87.625 77.5L73 62.875C70 60 65.75 59.375 62.25 61.125L49 47.875V40L33 28L25 36L37 52H44.75L58 65.375C56.375 68.875 56.875 73.125 59.75 76L74.375 90.75C76.25 92.5 79.125 92.5 81 90.75L87.625 84.125C89.375 82.25 89.375 79.375 87.625 77.5ZM66.375 56.125C70 56.125 73.25 57.5 75.75 60L78.25 62.5C80.125 61.625 82 60.375 83.625 58.75C88.25 54.125 89.875 47.625 88.375 41.75C88.125 40.625 86.75 40.25 85.875 41L76.625 50.375L68.125 48.875L66.75 40.375L76 31.125C76.875 30.25 76.375 28.875 75.25 28.625C69.375 27.125 62.875 28.75 58.25 33.375C54.625 36.875 53 41.625 53 46.25L63.375 56.5C64.375 56.25 65.375 56.125 66.375 56.125ZM53.375 66.375L46.375 59.375L27.25 78.375C24.125 81.5 24.125 86.625 27.25 89.75C30.375 92.875 35.5 92.875 38.625 89.75L54 74.25C53.125 71.75 52.75 69.125 53.375 66.375ZM33 87C31.25 87 30 85.75 30 84C30 82.375 31.25 81 33 81C34.625 81 36 82.375 36 84C36 85.75 34.625 87 33 87Z" fill="white"/>
</svg>
