<svg width="63" height="65" viewBox="0 0 63 65" fill="none" xmlns="http://www.w3.org/2000/svg">
<rect y="44" width="63" height="21" fill="#FFD2B2"/>
<path d="M5.74986 32.9167H8.66653V38.75V53.3334C8.66653 56.5505 11.2828 59.1667 14.4999 59.1667H49.4999C52.7169 59.1667 55.3332 56.5505 55.3332 53.3334V38.75V32.9167H58.2499C59.4282 32.9167 60.4957 32.205 60.9449 31.1171C61.3969 30.0263 61.1461 28.7721 60.3119 27.938L34.0619 1.68795C32.9215 0.547537 31.0782 0.547537 29.9378 1.68795L3.68778 27.938C2.85361 28.7721 2.60278 30.0263 3.05486 31.1171C3.50403 32.205 4.57153 32.9167 5.74986 32.9167ZM31.9999 7.8742L49.4999 25.3742V38.75L49.5028 53.3334H14.4999V38.75V30V25.3742L31.9999 7.8742Z" fill="#E65100"/>
<path d="M42.2338 29.693H38.3961V27.1345C38.3961 25.7235 37.2486 24.576 35.8376 24.576H28.1622C26.7512 24.576 25.6037 25.7235 25.6037 27.1345V29.693H21.766C20.355 29.693 19.2075 30.8405 19.2075 32.2515V46.3231C19.2075 47.7341 20.355 48.8816 21.766 48.8816H42.2338C43.6448 48.8816 44.7923 47.7341 44.7923 46.3231V32.2515C44.7923 30.8405 43.6448 29.693 42.2338 29.693ZM35.8376 27.1345V29.693H28.1622V27.1345H35.8376ZM21.766 32.2515H26.883H37.1169H38.3961H42.2338V37.3684H38.3961V34.81H35.8376V37.3684H28.1622V34.81H25.6037V37.3684H21.766V32.2515ZM21.766 46.3231V39.9269H25.6037V42.4854H28.1622V39.9269H35.8376V42.4854H38.3961V39.9269H42.2351V46.3231H21.766Z" fill="#EF6C00"/>
</svg>
